<?xml version="1.0" encoding="utf-8"?>
<svg width="500" height="587.92395" id="svg5201" version="1.1" xmlns="http://www.w3.org/2000/svg">
  <path id="rect4680" style="fill-opacity: 1; stroke: none; fill: rgb(8, 118, 155);" d="M 437.683 498.956 C 473.364 498.956 502.089 470.231 502.089 434.55 L 502.089 63.362 C 502.089 27.681 473.364 -1.044 437.683 -1.044 L 66.495 -1.044 C 30.814 -1.044 2.089 27.681 2.089 63.362 L 2.089 434.55 C 2.089 470.231 30.814 498.956 66.495 498.956 L 297.597 498.956 L 297.597 586.88 L 397.597 498.956 L 437.683 498.956 Z"/>
  <g id="g9943" transform="matrix(-3.202586, 0, 0, 3.0676, 851.774963, -975.893127)" style="">
    <path id="path3051" d="M 176.692 443.659 C 177.786 442.93 179.184 439.189 180.666 433.018 C 181.493 429.578 184.216 423.156 185.387 421.883 C 186.552 420.617 189.139 414.944 189.951 411.871 C 190.894 408.308 191.708 400.578 191.22 399.827 C 190.493 398.707 189.835 399.986 189.491 403.189 C 188.696 410.588 186.998 415.838 184.293 419.266 C 182.322 421.763 180.627 425.915 178.88 432.527 C 177.975 435.951 176.888 439.411 176.464 440.216 C 175.757 441.559 175.663 441.599 175.315 440.704 C 175.106 440.168 174.336 437.201 173.603 434.109 C 172.32 428.702 171.828 426.362 170.703 420.327 C 169.578 414.294 167.226 411.219 163.439 410.827 C 162.21 410.7 158.661 410.274 155.552 409.88 C 152.345 409.474 145.343 409.14 139.366 409.109 C 133.572 409.079 128.428 408.958 127.934 408.842 C 127.44 408.725 126.436 407.655 125.701 406.463 C 124.669 404.789 124.065 404.296 123.042 404.296 C 121.292 404.296 117.27 408.219 117.27 409.925 C 117.27 410.593 117.375 411.139 117.502 411.139 C 117.63 411.139 118.762 410.149 120.015 408.939 C 121.269 407.73 122.507 406.74 122.766 406.74 C 123.026 406.74 123.971 407.73 124.868 408.939 L 126.498 411.139 L 136.914 411.165 C 142.643 411.179 149.181 411.393 151.441 411.64 C 153.703 411.886 157.402 412.23 159.663 412.404 C 161.924 412.578 164.292 413.028 164.924 413.403 C 166.572 414.381 168.157 417.628 168.933 421.616 C 169.302 423.514 169.969 426.827 170.415 428.978 C 170.861 431.128 171.358 433.547 171.521 434.354 C 173.609 444.685 174.027 445.436 176.693 443.66 L 176.692 443.659 Z M 247.601 410.876 C 248.485 410.508 249.95 409.316 250.856 408.228 C 251.761 407.14 252.718 406.25 252.981 406.25 C 253.244 406.25 253.918 406.965 254.477 407.839 C 255.038 408.712 255.5 409.207 255.505 408.939 C 255.511 408.67 255.74 408.78 256.013 409.183 C 256.421 409.783 256.513 409.727 256.52 408.876 C 256.531 407.434 255.163 404.462 254.363 404.188 C 252.919 403.693 250.579 404.852 249.219 406.733 C 247.595 408.982 245.416 409.787 244.43 408.504 C 244.081 408.051 243.64 406.204 243.45 404.399 C 243.043 400.541 242.746 399.408 242.139 399.408 C 241.895 399.408 241.566 399.793 241.41 400.263 C 241.004 401.482 242.427 410.046 243.179 410.907 C 243.942 411.782 245.455 411.772 247.601 410.877 L 247.601 410.876 Z M 233.421 410.71 C 234.419 410.511 235.512 410.187 235.847 409.99 C 236.821 409.418 238.467 405.463 239.097 402.183 C 240.247 396.193 240.089 396.618 240.825 397.576 C 241.987 399.089 242.653 398.554 242.65 396.109 C 242.645 393.134 241.74 390.007 240.95 390.243 C 239.83 390.577 238.544 393.76 238.53 396.231 C 238.517 398.701 237.478 402.168 235.51 406.318 C 234.603 408.227 234.152 408.635 232.652 408.903 C 229.199 409.519 225.763 408.696 222.258 406.414 C 220.456 405.24 218.017 403.964 216.84 403.578 C 214.705 402.878 214.693 402.881 211.725 404.808 C 207.792 407.361 205.096 407.497 203.637 405.216 C 203.101 404.377 202.506 402.893 202.315 401.917 C 202.122 400.94 201.735 399.876 201.454 399.552 C 201.172 399.228 201.084 398.743 201.258 398.476 C 201.432 398.208 201.346 396.054 201.067 393.689 C 200.402 388.051 199.054 374.712 198.436 367.64 C 197.426 356.097 196.781 352.428 195.562 351.267 C 194.695 350.443 194.361 350.387 193.482 350.918 C 192.845 351.303 191.9 360.52 191.492 370.328 C 191.369 373.284 191.145 377.023 190.993 378.636 C 190.843 380.249 190.584 385.389 190.42 390.058 C 190.173 397.099 190.242 398.511 190.823 398.328 C 191.741 398.04 192.103 394.668 192.812 379.857 C 193.663 362.103 194.24 355.42 194.925 355.42 C 195.174 355.42 195.378 356.077 195.378 356.879 C 195.378 357.682 195.602 359.277 195.876 360.423 C 196.149 361.569 196.854 368.445 197.441 375.703 C 198.558 389.502 199.341 396.704 199.859 397.941 C 200.028 398.344 200.234 399.829 200.318 401.242 C 200.401 402.654 200.921 404.778 201.472 405.963 C 202.414 407.988 202.641 408.149 205.317 408.677 C 208.338 409.274 210.127 408.799 212.592 406.745 C 214.676 405.009 216.047 405.139 219.612 407.414 C 221.443 408.581 223.733 409.778 224.703 410.074 C 227.2 410.835 231.289 411.133 233.421 410.709 L 233.421 410.71 Z" style="stroke-linejoin: round; stroke-linecap: round; stroke-width: 5; fill: rgb(0, 0, 0); stroke: rgb(255, 255, 255);"/>
  </g>
</svg>