<?xml version="1.0" standalone="no"?>
<!DOCTYPE svg PUBLIC "-//W3C//DTD SVG 20010904//EN"
 "http://www.w3.org/TR/2001/REC-SVG-20010904/DTD/svg10.dtd">
<svg version="1.0" xmlns="http://www.w3.org/2000/svg"
 width="588.000000pt" height="588.000000pt" viewBox="0 0 588.000000 588.000000"
 preserveAspectRatio="xMidYMid meet">
<metadata>
Created by potrace 1.14, written by Peter Selinger 2001-2017
</metadata>
<g transform="translate(0.000000,588.000000) scale(0.100000,-0.100000)"
fill="#000000" stroke="none">
<path d="M897 5855 c-191 -66 -339 -216 -405 -409 l-27 -81 0 -1975 0 -1975
28 -80 c72 -203 215 -346 411 -413 l81 -27 1217 -3 1218 -2 2 -436 3 -435 495
434 494 435 266 4 c257 3 267 4 338 30 167 60 296 172 372 322 l45 89 0 2057
0 2057 -44 88 c-75 152 -220 276 -383 326 -58 18 -133 19 -2051 18 l-1992 0
-68 -24z m1904 -918 c23 -15 37 -35 46 -66 19 -67 41 -279 58 -571 9 -146 20
-332 25 -415 5 -82 10 -225 10 -316 0 -91 4 -179 10 -195 5 -16 16 -76 25
-134 29 -202 66 -306 148 -422 25 -35 58 -91 75 -124 31 -61 112 -293 112
-320 0 -8 4 -14 9 -14 4 0 27 89 50 197 72 334 86 377 151 455 57 68 130 94
340 118 196 22 550 39 815 40 l160 0 22 33 c13 18 39 48 58 67 33 32 41 35 99
35 58 0 69 -4 121 -40 81 -55 137 -132 143 -195 3 -35 0 -57 -12 -74 -39 -61
-90 -57 -176 15 l-58 48 -27 -35 c-58 -77 -23 -70 -453 -77 -391 -6 -788 -33
-834 -58 -42 -22 -76 -126 -138 -419 -91 -430 -113 -495 -172 -526 -52 -27
-135 -7 -180 43 -31 34 -77 147 -119 292 -48 168 -99 292 -156 376 -57 83
-108 190 -142 293 -35 103 -63 293 -60 394 1 40 -3 100 -9 133 -13 70 -32 302
-32 389 0 105 -11 53 -31 -141 -10 -103 -28 -237 -39 -298 -11 -60 -25 -137
-31 -170 -12 -70 -61 -168 -95 -190 -35 -23 -131 -45 -194 -45 -75 0 -116 13
-189 60 -34 22 -67 40 -73 40 -6 0 -55 -25 -109 -55 -143 -79 -201 -97 -345
-103 -176 -7 -270 26 -304 108 -14 33 -30 40 -30 13 -1 -37 -40 -103 -72 -123
-40 -24 -117 -26 -179 -5 -24 9 -70 36 -103 61 l-58 46 -22 -20 c-102 -93
-208 -19 -162 114 54 158 134 199 264 133 37 -18 74 -46 93 -71 38 -47 43 -42
53 47 4 33 12 76 17 96 5 20 11 86 12 145 5 166 43 234 130 234 79 0 138 -96
157 -255 10 -86 35 -168 78 -255 l27 -55 85 0 c94 0 70 -9 295 108 50 26 116
53 147 59 l58 12 109 -57 c112 -58 150 -68 170 -44 20 25 61 167 61 212 0 24
4 77 10 117 11 78 56 508 90 858 32 325 53 415 108 474 49 51 108 60 163 23z"/>
</g>
</svg>
